<svg width="160" height="42" viewBox="0 0 160 42" fill="none" xmlns="http://www.w3.org/2000/svg">
<path d="M19.2 0.00262205H6.75516C5.90341 0.00262205 5.17923 0.612242 5.04635 1.44065L0.0130684 32.8759C-0.0870396 33.4959 0.400746 34.0553 1.03936 34.0553H6.98072C7.83232 34.0553 8.5565 33.446 8.68938 32.616L10.0469 24.1375C10.178 23.3074 10.9039 22.6979 11.7537 22.6979H15.6934C23.8911 22.6979 28.6223 18.7902 29.858 11.0465C30.4148 7.65863 29.8816 4.99681 28.2711 3.13262C26.5024 1.08535 23.3652 0.00262205 19.2 0.00262205V0.00262205ZM20.6358 11.484C19.9552 15.8828 16.5432 15.8828 13.2441 15.8828H11.3662L12.6836 7.66772C12.7619 7.17112 13.1986 6.80546 13.7081 6.80546H14.5688C16.8161 6.80546 18.9361 6.80547 20.0315 8.06726C20.6849 8.82023 20.8851 9.93871 20.6358 11.484Z" fill="black"/>
<path d="M56.3997 11.3424H50.4404C49.9328 11.3424 49.4943 11.7081 49.4157 12.2046L49.1522 13.8465L48.7353 13.2514C47.4452 11.4068 44.5681 10.7903 41.6967 10.7903C35.1113 10.7903 29.4866 15.7036 28.3911 22.5958C27.8216 26.0338 28.6314 29.3213 30.6112 31.6138C32.4272 33.7218 35.0257 34.6001 38.1175 34.6001C43.4238 34.6001 46.3662 31.2394 46.3662 31.2394L46.1004 32.8705C46.0002 33.4943 46.4881 34.0536 47.1233 34.0536H52.491C53.3445 34.0536 54.0651 33.444 54.1999 32.6143L57.4206 12.5218C57.5228 11.9034 57.0368 11.3424 56.3997 11.3424V11.3424ZM48.0929 22.7679C47.5181 26.1216 44.8156 28.3732 41.3694 28.3732C39.6389 28.3732 38.2557 27.8263 37.3676 26.7902C36.487 25.7613 36.1521 24.2969 36.4324 22.6656C36.9691 19.3405 39.7171 17.0158 43.1106 17.0158C44.8031 17.0158 46.1787 17.5696 47.0849 18.6145C47.9931 19.6703 48.353 21.1438 48.0929 22.7679Z" fill="black"/>
<path d="M88.1389 11.3424H82.1504C81.579 11.3424 81.0421 11.622 80.7183 12.0899L72.4586 24.0747L68.9576 12.5577C68.7374 11.837 68.0624 11.3424 67.2981 11.3424H61.4132C60.6979 11.3424 60.2013 12.0306 60.4288 12.6939L67.0251 31.7627L60.8236 40.3865C60.3357 41.0657 60.827 42 61.6699 42H67.6512C68.2188 42 68.7503 41.7274 69.0723 41.2685L88.9905 12.9468C89.4673 12.269 88.9779 11.3424 88.1389 11.3424" fill="black"/>
<path d="M107.966 0.00262205H95.5196C94.6699 0.00262205 93.9455 0.612242 93.8126 1.44065L88.7794 32.8759C88.6795 33.4959 89.167 34.0553 89.8022 34.0553H96.1894C96.7824 34.0553 97.2904 33.6289 97.383 33.048L98.8114 24.1375C98.9423 23.3074 99.6686 22.6979 100.518 22.6979H104.456C112.656 22.6979 117.385 18.7902 118.622 11.0465C119.181 7.65863 118.644 4.99681 117.034 3.13262C115.267 1.08535 112.132 0.00262205 107.966 0.00262205V0.00262205ZM109.402 11.484C108.723 15.8828 105.312 15.8828 102.01 15.8828H100.134L101.454 7.66772C101.532 7.17112 101.965 6.80546 102.476 6.80546H103.337C105.583 6.80546 107.704 6.80547 108.8 8.06726C109.453 8.82023 109.651 9.93871 109.402 11.484Z" fill="black"/>
<path d="M145.165 11.3424H139.209C138.697 11.3424 138.262 11.7081 138.186 12.2046L137.922 13.8465L137.504 13.2514C136.214 11.4068 133.338 10.7903 130.467 10.7903C123.881 10.7903 118.259 15.7036 117.163 22.5958C116.595 26.0338 117.401 29.3213 119.381 31.6138C121.201 33.7218 123.796 34.6001 126.888 34.6001C132.194 34.6001 135.136 31.2394 135.136 31.2394L134.87 32.8705C134.771 33.4943 135.258 34.0536 135.897 34.0536H141.263C142.113 34.0536 142.837 33.444 142.97 32.6143L146.193 12.5218C146.291 11.9034 145.803 11.3424 145.165 11.3424V11.3424ZM136.858 22.7679C136.286 26.1216 133.58 28.3732 130.134 28.3732C128.407 28.3732 127.02 27.8263 126.132 26.7902C125.252 25.7613 124.92 24.2969 125.197 22.6656C125.738 19.3405 128.482 17.0158 131.876 17.0158C133.568 17.0158 134.943 17.5696 135.85 18.6145C136.761 19.6703 137.121 21.1438 136.858 22.7679Z" fill="black"/>
<path d="M152.191 0.865058L147.083 32.8759C146.983 33.4959 147.47 34.0553 148.105 34.0553H153.24C154.094 34.0553 154.818 33.446 154.949 32.616L159.986 1.18258C160.086 0.562119 159.599 0.00112238 158.964 0.00112238H153.213C152.705 0.00261838 152.269 0.368762 152.191 0.865058" fill="black"/>
</svg>
