<svg width="160" height="65" viewBox="0 0 160 65" fill="none" xmlns="http://www.w3.org/2000/svg">
<g clip-path="url(#clip0)">
<path d="M29.251 8.38011C27.376 10.5756 24.376 12.3073 21.376 12.0599C21.001 9.09134 22.4697 5.9372 24.1885 3.98906C26.0635 1.73168 29.3447 0.123692 32.001 0C32.3135 3.09229 31.0947 6.12274 29.251 8.38011ZM31.9697 12.6475C27.626 12.4001 23.9072 15.0904 21.8447 15.0904C19.751 15.0904 16.5947 12.7712 13.1572 12.833C8.68846 12.8949 4.53221 15.3996 2.25096 19.3887C-2.43654 27.3668 1.03221 39.1794 5.56346 45.6732C7.78221 48.8892 10.4385 52.4144 13.9385 52.2907C17.251 52.167 18.5635 50.157 22.5635 50.157C26.5947 50.157 27.751 52.2907 31.251 52.2288C34.876 52.167 37.1572 49.0128 39.3759 45.7969C41.9072 42.148 42.9385 38.5918 43.001 38.4063C42.9385 38.3444 36.001 35.716 35.9385 27.7997C35.876 21.1822 41.4072 18.0281 41.6572 17.8425C38.5322 13.2659 33.6572 12.7712 31.9697 12.6475ZM57.0634 3.67983V51.8887H64.6259V35.4068H75.0947C84.6572 35.4068 91.3759 28.9129 91.3759 19.5124C91.3759 10.1118 84.7822 3.67983 75.3447 3.67983H57.0634V3.67983ZM64.6259 9.98811H73.3447C79.9072 9.98811 83.6572 13.4515 83.6572 19.5433C83.6572 25.6351 79.9072 29.1294 73.3134 29.1294H64.6259V9.98811V9.98811ZM105.188 52.2598C109.938 52.2598 114.345 49.8787 116.345 46.1061H116.501V51.8887H123.501V27.8925C123.501 20.9348 117.876 16.451 109.22 16.451C101.188 16.451 95.2509 20.9967 95.0322 27.2431H101.845C102.407 24.2745 105.188 22.3264 109.001 22.3264C113.626 22.3264 116.22 24.46 116.22 28.3873V31.0466L106.782 31.6032C98.0009 32.1289 93.2509 35.6851 93.2509 41.8696C93.2509 48.1161 98.1572 52.2598 105.188 52.2598ZM107.22 46.539C103.188 46.539 100.626 44.6218 100.626 41.6841C100.626 38.6537 103.095 36.8911 107.813 36.6128L116.22 36.0871V38.8083C116.22 43.323 112.345 46.539 107.22 46.539ZM132.845 65C140.22 65 143.688 62.2169 146.72 53.775L160.001 16.9148H152.313L143.407 45.3949H143.251L134.345 16.9148H126.438L139.251 52.0124L138.563 54.1461C137.407 57.764 135.532 59.1556 132.188 59.1556C131.595 59.1556 130.438 59.0937 129.97 59.0319V64.8145C130.407 64.9382 132.282 65 132.845 65Z" fill="black"/>
</g>
<defs>
<clipPath id="clip0">
<rect width="160" height="65" fill="white"/>
</clipPath>
</defs>
</svg>
