<svg width="160" height="160" viewBox="0 0 160 160" fill="none" xmlns="http://www.w3.org/2000/svg">
<g clip-path="url(#clip0)">
<path d="M64.0648 56.191L55.9333 103.909H68.9383L77.0765 56.191H64.0648Z" fill="black"/>
<path d="M45.0293 56.2445L32.2919 88.787L30.9338 83.8734C28.4218 77.9529 21.2905 69.4502 12.9182 64.0916L24.5652 103.886L38.3261 103.863L58.8069 56.2345L45.0293 56.2445Z" fill="black"/>
<path d="M25.9966 59.6597C25.2406 56.753 23.0497 55.8866 20.3303 55.7829H0.167245L0 56.7329C15.6909 60.5394 26.0735 69.7111 30.3817 80.7392L25.9966 59.6597Z" fill="black"/>
<path d="M103.434 65.3393C107.689 65.2724 110.773 66.2023 113.168 67.1656L114.342 67.7175L116.101 57.3751C113.526 56.4084 109.489 55.3715 104.451 55.3715C91.6 55.3715 82.542 61.8439 82.4717 71.1193C82.3881 77.973 88.9241 81.7996 93.8611 84.0841C98.9287 86.4256 100.628 87.914 100.604 90.0046C100.564 93.199 96.5638 94.664 92.8276 94.664C87.6195 94.664 84.8533 93.9449 80.5819 92.1654L78.9061 91.4028L77.0764 102.083C80.1203 103.418 85.7364 104.565 91.5665 104.625C105.237 104.625 114.121 98.2297 114.215 88.3188C114.272 82.8967 110.803 78.759 103.287 75.364C98.738 73.1496 95.955 71.6779 95.9818 69.4435C95.9818 67.46 98.3433 65.3393 103.434 65.3393Z" fill="black"/>
<path d="M149.477 56.2445H139.429C136.308 56.2445 133.987 57.0941 132.615 60.2049L113.305 103.936H126.962C126.962 103.936 129.19 98.0558 129.695 96.768C131.19 96.768 144.46 96.7881 146.349 96.7881C146.737 98.4538 147.935 103.936 147.935 103.936H160L149.477 56.2445ZM133.438 87.0009C134.508 84.2614 138.619 73.6648 138.619 73.6648C138.549 73.7952 139.68 70.9052 140.352 69.109L141.228 73.2232C141.228 73.2232 143.72 84.616 144.242 87.0009H133.438Z" fill="black"/>
</g>
<defs>
<clipPath id="clip0">
<rect width="160" height="160" fill="white"/>
</clipPath>
</defs>
</svg>
